<!DOCTYPE svg PUBLIC "-//W3C//DTD SVG 1.1//EN" "http://www.w3.org/Graphics/SVG/1.1/DTD/svg11.dtd">
<!-- Uploaded to: SVG Repo, www.svgrepo.com, Transformed by: SVG Repo Mixer Tools -->
<svg width="800px" height="800px" viewBox="0 0 20 20" xmlns="http://www.w3.org/2000/svg" fill="#009192">
<g id="SVGRepo_bgCarrier" stroke-width="0"/>
<g id="SVGRepo_tracerCarrier" stroke-linecap="round" stroke-linejoin="round"/>
<g id="SVGRepo_iconCarrier"> <rect x="0" fill="none" width="20" height="20"/> <g> <path d="M7 4.5c-.3 0-.5.3-.5.5v2.5h-1V5c0-.3-.2-.5-.5-.5s-.5.3-.5.5v2.5h-1V5c0-.3-.2-.5-.5-.5s-.5.3-.5.5v3.3c0 .9.7 1.6 1.5 1.7v7c0 .6.4 1 1 1s1-.4 1-1v-7c.8-.1 1.5-.8 1.5-1.7V5c0-.2-.2-.5-.5-.5zM9 5v6h1v6c0 .6.4 1 1 1s1-.4 1-1V2c-1.7 0-3 1.3-3 3zm7-1c-1.4 0-2.5 1.5-2.5 3.3-.1 1.2.5 2.3 1.5 3V17c0 .6.4 1 1 1s1-.4 1-1v-6.7c1-.7 1.6-1.8 1.5-3C18.5 5.5 17.4 4 16 4z"/> </g> </g>
</svg>