<svg xmlns="http://www.w3.org/2000/svg" fill-rule="evenodd" stroke-linejoin="round" stroke-miterlimit="2" clip-rule="evenodd" viewBox="0 0 32 32" id="ating"><g transform="translate(0 -208)"><path d="M6,211L6,218C6,218.315 6.148,218.611 6.4,218.8L10,221.5C10,221.5 10,231 10,231C10,231.552 10.448,232 11,232C11.552,232 12,231.552 12,231L12,221C12,220.685 11.852,220.389 11.6,220.2L8,217.5C8,217.5 8,211 8,211C8,210.448 7.552,210 7,210C6.448,210 6,210.448 6,211Z"></path><path d="M8,211L8,217.5C8,217.5 11.6,220.2 11.6,220.2C11.852,220.389 12,220.685 12,221L12,231C12,231.552 11.552,232 11,232C10.448,232 10,231.552 10,231L10,221.5C10,221.5 6.4,218.8 6.4,218.8C6.148,218.611 6,218.315 6,218L6,211C6,210.448 6.448,210 7,210C7.552,210 8,210.448 8,211Z" transform="matrix(-1 0 0 1 22 0)"></path><path d="M12,222L12,231C12,231.552 11.552,232 11,232C10.448,232 10,231.552 10,231L10,222C10,221.448 10.448,221 11,221C11.552,221 12,221.448 12,222Z" transform="matrix(-1 0 0 1 33 0)"></path><path d="M10,211L10,220C10,220.552 10.448,221 11,221C11.552,221 12,220.552 12,220L12,211C12,210.448 11.552,210 11,210C10.448,210 10,210.448 10,211Z"></path><path d="M23.25,210C22.221,210 21.233,210.508 20.462,211.465C19.545,212.603 18.917,214.43 18.917,216.5C18.917,218.57 19.545,220.397 20.462,221.535C21.233,222.492 22.221,223 23.25,223C24.279,223 25.267,222.492 26.038,221.535C26.955,220.397 27.583,218.57 27.583,216.5C27.583,214.43 26.955,212.603 26.038,211.465C25.267,210.508 24.279,210 23.25,210ZM23.25,212C23.657,212 23.995,212.28 24.3,212.659C24.997,213.523 25.417,214.927 25.417,216.5C25.417,218.073 24.997,219.477 24.3,220.341C23.995,220.72 23.657,221 23.25,221C22.843,221 22.505,220.72 22.2,220.341C21.503,219.477 21.083,218.073 21.083,216.5C21.083,214.927 21.503,213.523 22.2,212.659C22.505,212.28 22.843,212 23.25,212Z" transform="matrix(.92308 0 0 1 .538 0)"></path><path d="M26.951,220.129C27.32,221.27 27.519,222.487 27.519,223.75C27.519,230.246 22.246,235.519 15.75,235.519C9.254,235.519 3.981,230.246 3.981,223.75C3.981,222.487 4.18,221.27 4.549,220.129C4.716,219.614 4.433,219.06 3.918,218.894C3.403,218.727 2.849,219.01 2.683,219.525C2.252,220.856 2.019,222.276 2.019,223.75C2.019,231.328 8.172,237.481 15.75,237.481C23.328,237.481 29.481,231.328 29.481,223.75C29.481,222.276 29.248,220.856 28.817,219.525C28.651,219.01 28.097,218.727 27.582,218.894C27.067,219.06 26.784,219.614 26.951,220.129Z" transform="translate(-.059 -4.137) scale(1.01961)"></path></g></svg>